HIERARCHY
ROOT root
{
  OFFSET 24.3999 93.6577 -85.9999
  CHANNELS 6 Xposition Yposition Zposition Zrotation Xrotation Yrotation
  JOINT lhipjoint
  {
    OFFSET 0 0 0
    CHANNELS 6 Xposition Yposition Zposition Zrotation Xrotation Yrotation
    JOINT lfemur
    {
      OFFSET 18.5758 -19.2903 9.54656
      CHANNELS 6 Xposition Yposition Zposition Zrotation Xrotation Yrotation
      JOINT ltibia
      {
        OFFSET -1.9631e-005 -74.2526 0
        CHANNELS 6 Xposition Yposition Zposition Zrotation Xrotation Yrotation
        JOINT lfoot
        {
          OFFSET -2.37159e-005 -89.7035 0
          CHANNELS 6 Xposition Yposition Zposition Zrotation Xrotation Yrotation
          JOINT ltoes
          {
            OFFSET 0 -25.3703 -6.19462
            CHANNELS 6 Xposition Yposition Zposition Zrotation Xrotation Yrotation
            End Site
            {
              OFFSET 0 -13.0878 0
            }
          }
        }
      }
    }
  }
  JOINT rhipjoint
  {
    OFFSET 0 0 0
    CHANNELS 6 Xposition Yposition Zposition Zrotation Xrotation Yrotation
    JOINT rfemur
    {
      OFFSET -17.9301 -19.2903 9.54658
      CHANNELS 6 Xposition Yposition Zposition Zrotation Xrotation Yrotation
      JOINT rtibia
      {
        OFFSET 1.96347e-005 -74.2668 0
        CHANNELS 6 Xposition Yposition Zposition Zrotation Xrotation Yrotation
        JOINT rfoot
        {
          OFFSET 2.38079e-005 -90.0515 0
          CHANNELS 6 Xposition Yposition Zposition Zrotation Xrotation Yrotation
          JOINT rtoes
          {
            OFFSET 0 -23.7792 -7.11007
            CHANNELS 6 Xposition Yposition Zposition Zrotation Xrotation Yrotation
            End Site
            {
              OFFSET 0 -12.3995 0
            }
          }
        }
      }
    }
  }
  JOINT lowerback
  {
    OFFSET 0 0 0
    CHANNELS 6 Xposition Yposition Zposition Zrotation Xrotation Yrotation
    JOINT upperback
    {
      OFFSET 0.354683 23.7627 -1.24606
      CHANNELS 6 Xposition Yposition Zposition Zrotation Xrotation Yrotation
      JOINT thorax
      {
        OFFSET -0.210265 23.8079 -0.785224
        CHANNELS 6 Xposition Yposition Zposition Zrotation Xrotation Yrotation
        JOINT lowerneck
        {
          OFFSET -0.394489 23.8198 -0.204488
          CHANNELS 6 Xposition Yposition Zposition Zrotation Xrotation Yrotation
          JOINT upperneck
          {
            OFFSET -0.255974 19.5566 0.0509207
            CHANNELS 6 Xposition Yposition Zposition Zrotation Xrotation Yrotation
            JOINT head
            {
              OFFSET -0.655709 17.4667 -6.97072
              CHANNELS 6 Xposition Yposition Zposition Zrotation Xrotation Yrotation
              End Site
              {
                OFFSET -0.157538 19.3569 -2.3799
              }
            }
          }
        }
        JOINT lclavicle
        {
          OFFSET -0.394489 23.8198 -0.204488
          CHANNELS 6 Xposition Yposition Zposition Zrotation Xrotation Yrotation
          JOINT lhumerus
          {
            OFFSET 38.9352 5.67807 2.47458
            CHANNELS 6 Xposition Yposition Zposition Zrotation Xrotation Yrotation
            JOINT lradius
            {
              OFFSET 0 -61.1764 0
              CHANNELS 6 Xposition Yposition Zposition Zrotation Xrotation Yrotation
              JOINT lwrist
              {
                OFFSET 0 -27.587 0
                CHANNELS 6 Xposition Yposition Zposition Zrotation Xrotation Yrotation
                JOINT lhand
                {
                  OFFSET 0 -13.7934 0
                  CHANNELS 6 Xposition Yposition Zposition Zrotation Xrotation Yrotation
                  JOINT lfingers
                  {
                    OFFSET 0 -8.21269 0
                    CHANNELS 6 Xposition Yposition Zposition Zrotation Xrotation Yrotation
                    End Site
                    {
                      OFFSET 0 -6.62128 0
                    }
                  }
                }
                JOINT lthumb
                {
                  OFFSET 0 -13.7934 0
                  CHANNELS 6 Xposition Yposition Zposition Zrotation Xrotation Yrotation
                  End Site
                  {
                    OFFSET 0 -9.50688 0
                  }
                }
              }
            }
          }
        }
        JOINT rclavicle
        {
          OFFSET -0.394489 23.8198 -0.204488
          CHANNELS 6 Xposition Yposition Zposition Zrotation Xrotation Yrotation
          JOINT rhumerus
          {
            OFFSET -36.4648 6.30259 3.50533
            CHANNELS 6 Xposition Yposition Zposition Zrotation Xrotation Yrotation
            JOINT rradius
            {
              OFFSET -0.0017767 -63.1022 -0.000763308
              CHANNELS 6 Xposition Yposition Zposition Zrotation Xrotation Yrotation
              JOINT rwrist
              {
                OFFSET 0 -28.0032 0
                CHANNELS 6 Xposition Yposition Zposition Zrotation Xrotation Yrotation
                JOINT rhand
                {
                  OFFSET 0 -14.0016 0
                  CHANNELS 6 Xposition Yposition Zposition Zrotation Xrotation Yrotation
                  JOINT rfingers
                  {
                    OFFSET 0 -9.21183 0
                    CHANNELS 6 Xposition Yposition Zposition Zrotation Xrotation Yrotation
                    End Site
                    {
                      OFFSET 0 -7.42681 0
                    }
                  }
                }
                JOINT rthumb
                {
                  OFFSET 0 -14.0016 0
                  CHANNELS 6 Xposition Yposition Zposition Zrotation Xrotation Yrotation
                  End Site
                  {
                    OFFSET 0 -10.6635 0
                  }
                }
              }
            }
          }
        }
      }
    }
  }
}
MOTION
Frames:	5
Frame Time:	0.00833333
24.3999 93.6577 -85.9999 -8.41724 29.7671 10.4213 0 0 0 7.95139e-016 -3.18055e-015 -1.59028e-015 18.5758 -19.2903 9.54656 0.0512621 -20.6825 20.2605 -1.9631e-005 -74.2526 0 -7.95139e-016 39.5467 -0 -2.37159e-005 -89.7035 1.42109e-014 23.4513 -47.555 30.4499 -1.11333e-006 -25.3703 -6.19462 -4.40231e-016 10.248 -6.46423e-015 0 0 0 7.95139e-016 -3.18055e-015 -1.59028e-015 -17.9301 -19.2903 9.54658 18.2979 -43.9104 6.77014 1.96347e-005 -74.2668 0 -4.19155e-015 29.5908 3.6576e-015 2.38079e-005 -90.0515 7.10543e-015 -150.756 -53.3128 -145.077 7.27281e-007 -23.7792 -7.11007 2.27928e-015 19.1168 -2.10387e-015 0 0 0 2.94351 -18.5194 -3.17662 0.354683 23.7627 -1.24606 4.34655 -11.6316 -4.63405 -0.210265 23.8079 -0.785224 2.55597 -2.0786 -2.31485 -0.394489 23.8198 -0.204488 -4.99656 -14.1185 -8.62284 -0.255974 19.5566 0.0509207 6.13506 38.501 -14.2057 -0.655709 17.4667 -6.97072 -1.10657 16.4609 -5.68234 -0.394489 23.8198 -0.204488 1.10698e-014 0 -2.42517e-014 38.9352 5.67807 2.47458 3.78421 26.4343 178.939 2.3786e-009 -61.1764 1.37328e-009 -1.8438e-015 32.4658 -4.71215e-015 1.07271e-009 -27.587 6.19323e-010 -4.34897e-015 -1.62306e-014 -120 0 -13.7934 -6.19309e-010 16.2709 -2.13946 1.27311e-014 0 -8.21269 -3.68658e-010 -7.95139e-016 7.12502 6.41061e-015 0 -13.7934 -6.19309e-010 -0.149502 23.5396 6.9385e-015 -0.394489 23.8198 -0.204488 1.10698e-014 0 -2.42517e-014 -36.4648 6.30259 3.50533 -15.6408 21.4543 179.501 -0.0017767 -63.1022 -0.000763308 5.23549e-016 24.7209 3.50144e-015 -1.08881e-009 -28.0032 6.28631e-010 -2.2945e-014 -2.57837e-014 101.074 -1.42109e-014 -14.0016 -6.28624e-010 12.4538 4.56578 -9.57204e-015 0 -9.21183 -4.13507e-010 0 7.12502 -0 -1.42109e-014 -14.0016 -6.28624e-010 29.8585 29.9557 -3.12031e-014 
24.4176 93.6041 -85.9863 -8.46329 29.7555 10.4882 0 0 0 -7.95139e-016 0 3.18055e-015 18.5758 -19.2903 9.54656 0.0425392 -20.7406 20.1866 -1.9631e-005 -74.2526 1.42109e-014 5.26215e-015 39.5988 -8.25554e-015 -2.37159e-005 -89.7035 -7.10543e-015 22.6202 -46.5801 29.8413 -1.11333e-006 -25.3703 -6.19462 2.81545e-015 6.93299 9.61195e-015 0 0 0 -7.95139e-016 0 3.18055e-015 -17.9301 -19.2903 9.54658 18.2351 -43.8602 6.59288 1.96347e-005 -74.2668 0 -3.97569e-016 29.5048 -0 2.38079e-005 -90.0515 7.10543e-015 -151.253 -52.8817 -145.475 7.27281e-007 -23.7792 -7.11007 4.19043e-016 19.3583 -1.26418e-015 0 0 0 2.99154 -18.4674 -3.16833 0.354683 23.7627 -1.24606 4.37643 -11.7241 -4.62226 -0.210265 23.8079 -0.785224 2.57462 -2.20827 -2.31061 -0.394489 23.8198 -0.204488 -5.039 -14.2326 -8.4596 -0.255974 19.5566 0.0509207 6.21486 38.8341 -14.0166 -0.655709 17.4667 -6.97072 -1.0386 16.677 -5.57985 -0.394489 23.8198 -0.204488 9.23106e-015 0 -2.42517e-014 38.9352 5.67807 2.47458 3.77855 26.3966 178.904 2.3786e-009 -61.1764 1.37325e-009 1.03351e-015 32.346 -5.64707e-015 1.07271e-009 -27.587 6.19337e-010 2.10955e-014 -1.62306e-014 -120 -1.42109e-014 -13.7934 -6.19309e-010 16.3874 -2.00741 3.18251e-015 0 -8.21269 -3.68658e-010 -3.18055e-015 7.12502 -0 -1.42109e-014 -13.7934 -6.19309e-010 -0.108622 23.6663 -0 -0.394489 23.8198 -0.204488 9.23106e-015 0 -2.42517e-014 -36.4648 6.30259 3.50533 -15.5853 21.4707 179.488 -0.0017767 -63.1022 -0.000763308 -3.63065e-016 24.6399 -4.37396e-015 -1.08882e-009 -28.0032 6.28603e-010 -2.60771e-014 6.37754e-015 101.33 1.42109e-014 -14.0016 -6.28617e-010 12.8888 3.52769 3.98324e-015 0 -9.21183 -4.13511e-010 -6.55989e-015 7.12502 1.60265e-015 1.42109e-014 -14.0016 -6.28617e-010 30.1292 28.9636 4.54403e-015 
24.408 93.5776 -86.005 -8.48624 29.7922 10.4692 0 0 0 -2.38542e-015 0 -1.59028e-015 18.5758 -19.2903 9.54656 0.0310531 -20.8085 20.1073 -1.9631e-005 -74.2526 0 2.38542e-015 39.6561 -0 -2.37159e-005 -89.7035 7.10543e-015 21.7964 -45.5719 29.248 -1.11333e-006 -25.3703 -6.19462 -7.95139e-016 3.56407 -0 0 0 0 -2.38542e-015 0 -1.59028e-015 -17.9301 -19.2903 9.54658 18.1662 -43.8124 6.40586 1.96347e-005 -74.2668 0 -1.24344e-015 29.4142 9.12807e-016 2.38079e-005 -90.0515 -1.42109e-014 -151.784 -52.4096 -145.897 7.27281e-007 -23.7792 -7.11007 -1.59028e-015 19.6136 -0 0 0 0 3.01294 -18.4526 -3.11642 0.354683 23.7627 -1.24606 4.37937 -11.7901 -4.55209 -0.210265 23.8079 -0.785224 2.57961 -2.29025 -2.27643 -0.394489 23.8198 -0.204488 -4.92685 -14.4022 -8.21295 -0.255974 19.5566 0.0509207 6.23732 39.1904 -13.7231 -0.655709 17.4667 -6.97072 -0.993832 16.9049 -5.41772 -0.394489 23.8198 -0.204488 1.00138e-014 1.98785e-016 -2.46493e-014 38.9352 5.67807 2.47458 3.77331 26.3519 178.862 2.37858e-009 -61.1764 1.37328e-009 2.57596e-015 32.2183 1.87971e-015 1.07271e-009 -27.587 6.19323e-010 -4.34897e-015 -1.62306e-014 -120 1.42109e-014 -13.7934 -6.19309e-010 16.5105 -1.86319 -1.59112e-014 -2.84217e-014 -8.21269 -3.68651e-010 -7.95139e-016 7.12502 -0 1.42109e-014 -13.7934 -6.19309e-010 -0.065407 23.8046 -1.39052e-014 -0.394489 23.8198 -0.204488 1.00138e-014 1.98785e-016 -2.46493e-014 -36.4648 6.30259 3.50533 -15.5319 21.4802 179.476 -0.0017767 -63.1022 -0.000763308 -2.5231e-015 24.5467 -3.49656e-015 -1.08881e-009 -28.0032 6.28631e-010 9.95601e-014 2.18543e-014 101.588 0 -14.0016 -6.28617e-010 13.344 2.47613 1.11423e-014 0 -9.21183 -4.135e-010 -2.98177e-015 7.12502 -1.60265e-015 0 -14.0016 -6.28617e-010 30.4167 27.9587 2.16049e-014 
24.3855 93.5747 -86.0219 -8.44199 29.8306 10.4526 0 0 0 -0 -3.18055e-015 -0 18.5758 -19.2903 9.54656 0.0246531 -20.857 20.0386 -1.9631e-005 -74.2526 0 3.43598e-015 39.7031 -4.134e-015 -2.37159e-005 -89.7035 0 21.0444 -44.6134 28.7153 -1.11333e-006 -25.3703 -6.19462 1.53982e-015 0.302961 9.5418e-015 0 0 0 -0 -3.18055e-015 -0 -17.9301 -19.2903 9.54658 18.111 -43.7591 6.23927 1.96347e-005 -74.2668 0 -4.4681e-016 29.3328 9.12077e-016 2.38079e-005 -90.0515 -7.10543e-015 -152.219 -52.0136 -146.241 7.27281e-007 -23.7792 -7.11007 1.73373e-015 19.8413 -4.2266e-016 0 0 0 2.92247 -18.4537 -3.11278 0.354683 23.7627 -1.24606 4.37792 -11.8269 -4.53181 -0.210265 23.8079 -0.785224 2.63204 -2.32281 -2.26151 -0.394489 23.8198 -0.204488 -4.61288 -14.7919 -7.79002 -0.255974 19.5566 0.0509207 5.94019 39.6573 -13.0969 -0.655709 17.4667 -6.97072 -1.03019 17.2096 -5.12546 -0.394489 23.8198 -0.204488 8.67198e-015 0 -2.42517e-014 38.9352 5.67807 2.47458 3.76709 26.3212 178.833 2.37858e-009 -61.1764 1.37328e-009 -3.85874e-016 32.1063 -5.6322e-015 1.07272e-009 -27.587 6.19323e-010 -5.18289e-014 -3.50835e-015 -120 0 -13.7934 -6.19316e-010 16.6205 -1.74331 6.36405e-015 0 -8.21269 -3.68665e-010 1.19271e-015 7.12502 9.61592e-015 0 -13.7934 -6.19316e-010 -0.0268636 23.9196 6.95876e-015 -0.394489 23.8198 -0.204488 8.67198e-015 0 -2.42517e-014 -36.4648 6.30259 3.50533 -15.4742 21.5034 179.462 -0.0017767 -63.1022 -0.000763308 5.3986e-016 24.478 3.49465e-015 -1.08881e-009 -28.0032 6.28617e-010 6.91057e-016 -6.66239e-015 101.844 0 -14.0016 -6.28617e-010 13.7587 1.4515 1.59079e-015 1.42109e-014 -9.21183 -4.135e-010 5.96354e-016 7.12502 -4.80796e-015 0 -14.0016 -6.28617e-010 30.6705 26.9794 -5.35345e-015 
24.3806 93.5747 -86.0106 -8.38949 29.8653 10.4372 0 0 0 2.38542e-015 -6.36111e-015 -0 18.5758 -19.2903 9.54656 0.0313649 -20.8573 19.9968 -1.9631e-005 -74.2526 0 0 39.7242 -0 -2.37159e-005 -89.7035 7.10543e-015 20.4202 -43.7892 28.2802 -1.11333e-006 -25.3703 -6.19462 9.44497e-016 -2.68862 3.18406e-015 0 0 0 2.38542e-015 -6.36111e-015 -0 -17.9301 -19.2903 9.54658 18.0894 -43.6929 6.12328 1.96347e-005 -74.2668 0 9.93923e-016 29.2744 -0 2.38079e-005 -90.0515 -1.42109e-014 -152.437 -51.8124 -146.412 7.27281e-007 -23.7792 -7.11007 -1.87968e-015 20 8.46169e-016 0 0 0 2.84411 -18.5008 -3.10229 0.354683 23.7627 -1.24606 4.35834 -11.8889 -4.50492 -0.210265 23.8079 -0.785224 2.65891 -2.36233 -2.24428 -0.394489 23.8198 -0.204488 -4.37838 -15.2731 -7.59272 -0.255974 19.5566 0.0509207 5.87267 40.3103 -12.917 -0.655709 17.4667 -6.97072 -1.1294 17.6715 -4.97879 -0.394489 23.8198 -0.204488 1.08959e-014 3.97569e-016 -2.38542e-014 38.9352 5.67807 2.47458 3.75858 26.3256 178.839 2.3786e-009 -61.1764 1.37328e-009 -5.98494e-016 32.0331 3.7518e-015 1.07273e-009 -27.587 6.19323e-010 -3.51289e-014 1.62306e-014 -120 1.42109e-014 -13.7934 -6.19316e-010 16.6983 -1.68429 -3.18193e-015 0 -8.21269 -3.68651e-010 3.97569e-016 7.12502 3.20531e-015 1.42109e-014 -13.7934 -6.19316e-010 -1.11319e-014 23.9762 -0 -0.394489 23.8198 -0.204488 1.08959e-014 3.97569e-016 -2.38542e-014 -36.4648 6.30259 3.50533 -15.4057 21.5609 179.441 -0.0017767 -63.1022 -0.000763308 2.52822e-015 24.4703 3.49444e-015 -1.08881e-009 -28.0032 6.28617e-010 5.27385e-014 -1.74616e-014 102.093 0 -14.0016 -6.28628e-010 14.0718 0.494214 7.95168e-015 1.42109e-014 -9.21183 -4.13504e-010 2.98177e-015 7.12502 1.60265e-015 0 -14.0016 -6.28628e-010 30.8399 26.0637 7.96638e-015 
